<svg id="svg" version="1.1" xmlns="http://www.w3.org/2000/svg" xmlns:xlink="http://www.w3.org/1999/xlink" width="400" height="130.95238095238093" viewBox="0, 0, 400,130.95238095238093"><g id="svgg"><path id="path0" d="M302.626 30.290 L 302.583 40.250 296.792 40.294 L 291.000 40.338 291.000 47.169 L 291.000 54.000 296.811 54.000 L 302.622 54.000 302.745 63.139 C 302.813 68.165,302.816 73.471,302.753 74.931 C 302.648 77.347,302.956 83.569,303.263 85.250 C 303.587 87.016,304.186 89.355,304.502 90.083 C 304.581 90.267,304.858 90.904,305.117 91.500 C 308.150 98.490,314.225 101.814,324.000 101.833 C 328.320 101.842,330.519 101.565,336.000 100.324 C 336.871 100.127,337.868 99.908,338.215 99.837 C 339.078 99.662,339.085 99.646,338.847 98.374 C 338.649 97.317,338.436 96.074,337.914 92.917 C 337.339 89.439,337.148 88.356,336.976 87.606 L 336.791 86.795 336.104 86.894 C 335.726 86.948,334.779 87.107,334.000 87.247 C 329.196 88.107,324.223 88.396,322.189 87.933 C 317.283 86.817,316.840 84.664,317.100 63.208 L 317.212 54.000 326.356 54.000 L 335.500 54.000 335.500 47.167 L 335.500 40.333 326.335 40.333 L 317.169 40.333 317.126 30.375 L 317.083 20.417 309.876 20.373 L 302.669 20.330 302.626 30.290 M141.611 40.515 C 124.525 41.924,113.299 56.581,115.244 74.942 C 115.567 77.991,116.484 81.863,117.330 83.750 C 119.204 87.930,119.978 89.214,122.260 91.927 C 129.221 100.200,142.764 103.755,156.417 100.891 C 160.859 99.959,163.229 99.379,166.500 98.422 C 166.912 98.302,167.850 98.038,168.583 97.837 C 170.666 97.266,170.557 97.447,170.089 95.333 C 169.789 93.979,169.516 92.667,169.098 90.583 C 168.952 89.850,168.727 88.800,168.599 88.250 C 168.471 87.700,168.234 86.637,168.072 85.888 L 167.776 84.526 167.180 84.750 C 166.324 85.071,164.462 85.582,162.917 85.920 C 162.183 86.080,161.208 86.307,160.750 86.424 C 160.292 86.541,159.579 86.688,159.167 86.749 C 158.754 86.811,158.154 86.929,157.833 87.011 C 156.692 87.304,153.564 87.816,152.333 87.912 C 151.646 87.966,150.328 88.092,149.405 88.192 C 147.489 88.401,142.012 88.010,140.768 87.577 C 140.391 87.446,139.971 87.335,139.833 87.330 C 139.696 87.326,139.283 87.177,138.917 87.000 C 138.550 86.823,138.198 86.675,138.134 86.672 C 137.848 86.658,135.834 85.380,135.031 84.703 C 133.065 83.045,131.339 80.328,130.585 77.708 L 130.478 77.333 151.319 77.333 L 172.160 77.333 172.241 76.958 C 173.258 72.222,173.173 64.780,172.051 60.417 C 168.482 46.539,157.290 39.222,141.611 40.515 M20.167 70.409 L 20.167 100.333 27.249 100.333 L 34.332 100.333 34.374 77.292 L 34.417 54.250 41.833 54.250 C 52.540 54.250,54.723 54.855,56.418 58.289 C 57.646 60.777,57.560 59.181,57.621 80.875 L 57.676 100.333 64.751 100.333 L 71.827 100.333 71.930 99.924 C 72.127 99.137,71.870 59.496,71.660 58.333 C 71.552 57.737,71.453 56.954,71.440 56.592 L 71.417 55.933 72.417 55.710 C 86.116 52.654,92.641 54.020,94.495 60.332 C 95.285 63.022,95.333 64.317,95.333 82.903 L 95.333 100.333 102.417 100.333 L 109.500 100.333 109.500 80.906 C 109.500 62.156,109.488 61.401,109.159 59.281 C 107.702 49.899,102.921 43.894,95.071 41.586 C 88.050 39.523,74.110 40.577,64.833 43.874 L 63.750 44.259 62.618 43.611 C 60.390 42.336,58.470 41.651,55.167 40.955 C 53.657 40.637,52.807 40.618,36.875 40.552 L 20.167 40.484 20.167 70.409 M176.833 47.083 L 176.833 53.667 191.500 53.667 C 200.327 53.667,206.167 53.728,206.167 53.820 C 206.167 53.946,204.414 56.253,203.308 57.583 C 203.156 57.767,200.488 61.104,197.380 65.000 C 194.273 68.896,190.384 73.762,188.740 75.815 C 187.095 77.867,185.601 79.742,185.418 79.981 C 185.126 80.365,181.646 84.730,177.415 90.019 L 176.000 91.788 176.000 96.061 L 176.000 100.333 201.417 100.333 L 226.833 100.333 226.833 93.667 L 226.833 87.000 212.177 87.000 C 204.115 87.000,197.486 86.944,197.445 86.875 C 197.404 86.806,198.843 84.911,200.644 82.663 C 203.974 78.504,211.645 68.879,217.508 61.505 C 219.291 59.262,222.156 55.665,223.875 53.512 L 227.000 49.598 227.000 45.049 L 227.000 40.500 201.917 40.500 L 176.833 40.500 176.833 47.083 M147.960 53.427 C 153.580 54.329,157.497 57.875,158.811 63.250 C 158.923 63.708,159.054 64.215,159.102 64.375 C 159.185 64.651,158.419 64.667,144.660 64.667 L 130.131 64.667 130.244 64.208 C 130.307 63.956,130.546 63.262,130.775 62.667 C 131.004 62.071,131.278 61.358,131.383 61.083 C 133.442 55.685,140.813 52.280,147.960 53.427 " stroke="none" fill="#040404" fill-rule="evenodd"></path><path id="path1" d="M253.917 40.509 C 235.257 41.678,222.390 61.403,228.932 78.809 C 237.673 102.063,268.502 104.738,281.088 83.333 C 283.576 79.102,285.493 77.014,288.083 75.708 C 290.220 74.631,290.363 74.612,296.792 74.540 L 302.667 74.474 302.667 69.154 L 302.667 63.833 297.458 63.828 C 288.013 63.817,285.542 62.546,281.465 55.598 C 276.242 46.698,267.959 41.185,258.917 40.588 C 258.092 40.534,257.079 40.466,256.667 40.437 C 256.254 40.408,255.017 40.440,253.917 40.509 M362.667 40.527 C 353.236 41.129,344.992 46.408,339.762 55.197 C 337.262 59.398,335.024 61.692,332.204 62.947 C 330.510 63.701,329.244 63.821,322.958 63.828 L 317.167 63.833 317.167 69.155 L 317.167 74.476 323.625 74.537 C 329.626 74.594,330.156 74.623,331.112 74.945 C 334.350 76.033,337.301 78.781,339.582 82.833 C 350.106 101.523,375.931 103.160,388.289 85.920 C 402.519 66.069,387.218 38.962,362.667 40.527 " stroke="none" fill="#fcec0c" fill-rule="evenodd"></path><path id="path2" d="M0.000 65.417 L 0.000 130.833 200.000 130.833 L 400.000 130.833 400.000 65.417 L 400.000 0.000 200.000 0.000 L 0.000 0.000 0.000 65.417 M317.167 30.167 L 317.167 40.167 326.417 40.167 L 335.667 40.167 335.667 47.083 L 335.667 54.000 326.417 54.000 L 317.167 54.000 317.167 58.917 L 317.167 63.833 322.958 63.828 C 329.244 63.821,330.510 63.701,332.204 62.947 C 335.024 61.692,337.262 59.398,339.762 55.197 C 346.743 43.467,359.344 38.065,372.090 41.339 C 388.708 45.607,398.066 63.784,391.744 79.515 C 382.535 102.428,351.719 104.388,339.582 82.833 C 337.301 78.781,334.350 76.033,331.112 74.945 C 330.156 74.623,329.626 74.594,323.608 74.537 L 317.133 74.476 317.215 77.363 C 317.412 84.251,318.431 86.667,321.552 87.638 C 323.271 88.173,330.908 87.881,333.263 87.190 C 333.546 87.107,334.333 86.985,335.013 86.917 C 335.693 86.850,336.377 86.729,336.532 86.647 C 336.896 86.455,336.993 86.625,337.190 87.801 C 337.277 88.323,337.456 89.350,337.588 90.083 C 337.719 90.817,337.982 92.354,338.172 93.500 C 338.362 94.646,338.631 96.221,338.770 97.000 C 339.316 100.071,339.378 99.849,337.917 100.073 C 337.127 100.194,335.310 100.615,334.529 100.858 C 332.170 101.592,324.844 102.241,321.887 101.977 C 315.975 101.450,313.301 100.586,309.849 98.086 C 309.494 97.829,307.804 96.149,307.331 95.583 C 306.317 94.369,304.500 91.083,304.500 90.463 C 304.500 90.337,304.428 90.162,304.341 90.074 C 304.098 89.831,303.336 86.663,303.000 84.500 C 302.922 83.996,302.810 81.708,302.751 79.417 C 302.693 77.125,302.610 75.075,302.566 74.862 L 302.487 74.474 296.702 74.540 C 290.373 74.613,290.215 74.634,288.083 75.708 C 285.493 77.014,283.576 79.102,281.088 83.333 C 267.199 106.954,231.900 100.439,227.593 73.460 C 224.975 57.069,237.533 41.450,254.076 40.518 C 265.759 39.860,275.318 45.123,281.465 55.598 C 285.567 62.587,288.151 63.895,297.667 63.799 L 302.583 63.750 302.583 58.917 L 302.583 54.083 296.706 54.040 L 290.830 53.996 290.873 47.123 L 290.917 40.250 296.792 40.206 L 302.667 40.162 302.667 30.165 L 302.667 20.167 309.917 20.167 L 317.167 20.167 317.167 30.167 M149.083 40.341 C 149.633 40.436,150.533 40.587,151.083 40.677 C 153.445 41.063,155.766 41.768,157.942 42.760 C 158.231 42.892,158.520 43.000,158.585 43.000 C 158.650 43.000,159.352 43.388,160.144 43.861 C 167.507 48.266,171.488 54.493,172.861 63.750 C 173.321 66.855,173.039 75.077,172.398 77.208 C 172.316 77.484,171.178 77.500,151.551 77.500 L 130.792 77.500 130.894 78.010 C 131.216 79.622,133.042 82.580,134.694 84.168 C 138.933 88.241,147.580 89.140,158.750 86.670 C 163.288 85.667,165.185 85.200,166.791 84.693 C 167.990 84.315,167.923 84.262,168.258 85.861 C 168.399 86.533,168.617 87.571,168.741 88.167 C 168.866 88.763,169.082 89.775,169.220 90.417 C 169.359 91.058,169.636 92.371,169.837 93.333 C 170.780 97.866,170.776 97.410,169.868 97.663 C 169.528 97.758,168.575 98.027,167.750 98.260 C 156.289 101.499,151.021 102.296,143.902 101.866 C 131.913 101.142,122.620 95.462,118.215 86.167 C 117.484 84.624,117.007 83.482,116.822 82.833 C 116.704 82.421,116.555 82.008,116.489 81.917 C 116.336 81.704,115.905 80.025,115.484 78.000 C 115.037 75.849,114.826 71.572,115.009 68.356 C 115.857 53.408,125.795 42.443,140.250 40.505 C 141.075 40.394,141.862 40.282,142.000 40.255 C 142.671 40.122,148.207 40.190,149.083 40.341 M53.667 40.585 C 57.347 41.064,61.202 42.320,62.947 43.608 C 63.607 44.096,63.779 44.095,65.147 43.602 C 65.753 43.383,67.037 43.004,68.000 42.760 C 68.962 42.515,69.975 42.250,70.250 42.169 C 70.731 42.029,74.266 41.328,76.167 40.995 C 79.486 40.416,88.216 40.122,90.647 40.509 C 93.456 40.955,96.097 41.612,97.250 42.151 C 97.433 42.237,97.996 42.488,98.500 42.710 C 102.664 44.542,106.385 48.949,108.081 54.055 C 109.741 59.052,109.719 58.710,109.790 81.203 L 109.850 100.323 109.467 100.416 C 109.256 100.467,105.971 100.488,102.167 100.463 L 95.250 100.417 95.160 81.917 C 95.111 71.742,95.018 63.304,94.953 63.167 C 94.888 63.029,94.729 62.298,94.598 61.542 C 93.999 58.072,91.889 55.719,88.500 54.740 C 86.086 54.043,78.639 54.441,74.083 55.510 C 73.258 55.703,72.371 55.902,72.112 55.952 C 71.465 56.075,71.430 56.268,71.766 57.862 C 72.158 59.723,72.352 100.113,71.970 100.355 C 71.849 100.432,68.587 100.496,64.720 100.497 L 57.691 100.500 57.612 81.792 C 57.524 60.771,57.527 60.834,56.185 58.202 C 54.551 54.999,52.719 54.495,42.292 54.380 L 34.501 54.295 34.459 77.356 L 34.417 100.417 27.250 100.417 L 20.083 100.417 20.041 70.375 L 19.999 40.333 35.875 40.335 C 48.994 40.336,52.083 40.379,53.667 40.585 M227.167 45.012 L 227.167 49.690 225.531 51.720 C 224.631 52.836,222.883 55.025,221.646 56.583 C 220.409 58.142,218.201 60.908,216.740 62.732 C 215.279 64.555,213.939 66.242,213.763 66.482 C 213.586 66.721,212.987 67.479,212.432 68.167 C 211.876 68.854,211.365 69.492,211.297 69.583 C 211.229 69.675,210.690 70.350,210.099 71.083 C 209.509 71.817,207.354 74.517,205.312 77.083 C 203.270 79.650,200.714 82.857,199.633 84.211 C 198.551 85.564,197.667 86.708,197.667 86.752 C 197.667 86.797,204.268 86.833,212.335 86.833 L 227.004 86.833 226.960 93.625 L 226.917 100.417 201.417 100.417 L 175.917 100.417 175.872 96.072 L 175.828 91.727 179.039 87.708 C 180.805 85.498,183.075 82.660,184.083 81.401 C 185.092 80.143,186.404 78.500,187.000 77.750 C 188.792 75.495,195.167 67.505,201.850 59.138 C 203.950 56.510,205.713 54.241,205.768 54.096 C 205.860 53.858,204.499 53.833,191.268 53.833 L 176.667 53.833 176.667 47.083 L 176.667 40.333 201.917 40.333 L 227.167 40.333 227.167 45.012 M142.583 53.502 C 136.826 54.383,133.041 57.288,131.098 62.317 C 130.769 63.170,130.500 64.009,130.500 64.183 C 130.500 64.492,130.861 64.500,144.667 64.500 L 158.833 64.500 158.833 64.156 C 158.833 62.974,157.495 59.970,156.203 58.250 C 153.464 54.604,147.949 52.682,142.583 53.502 " stroke="none" fill="#fbfbfb" fill-rule="evenodd"></path><path id="path3" d="M306.303 20.292 C 308.349 20.318,311.649 20.318,313.636 20.291 C 315.624 20.265,313.950 20.243,309.917 20.243 C 305.883 20.243,304.257 20.265,306.303 20.292 M142.544 40.286 C 142.797 40.325,143.172 40.324,143.377 40.284 C 143.582 40.244,143.375 40.213,142.917 40.214 C 142.458 40.216,142.291 40.248,142.544 40.286 M147.208 40.286 C 147.460 40.324,147.873 40.324,148.125 40.286 C 148.377 40.248,148.171 40.217,147.667 40.217 C 147.162 40.217,146.956 40.248,147.208 40.286 M335.576 47.083 C 335.576 50.933,335.598 52.485,335.625 50.530 C 335.652 48.576,335.651 45.426,335.625 43.530 C 335.598 41.635,335.576 43.233,335.576 47.083 M49.714 40.457 C 50.245 40.490,51.070 40.490,51.548 40.456 C 52.026 40.422,51.592 40.395,50.583 40.396 C 49.575 40.396,49.184 40.424,49.714 40.457 M82.714 40.457 C 83.245 40.490,84.070 40.490,84.548 40.456 C 85.026 40.422,84.592 40.395,83.583 40.396 C 82.575 40.396,82.184 40.424,82.714 40.457 M87.708 40.456 C 88.144 40.490,88.856 40.490,89.292 40.456 C 89.727 40.422,89.371 40.393,88.500 40.393 C 87.629 40.393,87.273 40.422,87.708 40.456 M140.875 40.448 C 141.035 40.490,141.298 40.490,141.458 40.448 C 141.619 40.406,141.487 40.372,141.167 40.372 C 140.846 40.372,140.715 40.406,140.875 40.448 M148.875 40.448 C 149.035 40.490,149.298 40.490,149.458 40.448 C 149.619 40.406,149.487 40.372,149.167 40.372 C 148.846 40.372,148.715 40.406,148.875 40.448 M176.704 47.125 C 176.724 50.860,176.761 52.829,176.786 51.500 C 176.903 45.338,176.905 40.333,176.792 40.333 C 176.723 40.333,176.683 43.390,176.704 47.125 M290.910 47.167 C 290.910 50.971,290.931 52.527,290.958 50.625 C 290.985 48.723,290.985 45.610,290.958 43.708 C 290.931 41.806,290.910 43.362,290.910 47.167 M80.375 40.615 C 80.535 40.657,80.798 40.657,80.958 40.615 C 81.119 40.573,80.987 40.539,80.667 40.539 C 80.346 40.539,80.215 40.573,80.375 40.615 M164.493 47.042 C 164.902 47.477,165.258 47.833,165.285 47.833 C 165.410 47.833,165.278 47.684,164.542 46.993 L 163.750 46.250 164.493 47.042 M165.500 48.052 C 165.500 48.081,165.744 48.325,166.042 48.594 L 166.583 49.083 166.094 48.542 C 165.638 48.037,165.500 47.923,165.500 48.052 M48.125 54.451 C 48.331 54.491,48.669 54.491,48.875 54.451 C 49.081 54.411,48.913 54.379,48.500 54.379 C 48.087 54.379,47.919 54.411,48.125 54.451 M81.208 54.453 C 81.460 54.491,81.873 54.491,82.125 54.453 C 82.377 54.415,82.171 54.383,81.667 54.383 C 81.162 54.383,80.956 54.415,81.208 54.453 M86.208 54.448 C 86.369 54.490,86.631 54.490,86.792 54.448 C 86.952 54.406,86.821 54.372,86.500 54.372 C 86.179 54.372,86.048 54.406,86.208 54.448 M77.708 54.782 C 77.869 54.823,78.131 54.823,78.292 54.782 C 78.452 54.740,78.321 54.705,78.000 54.705 C 77.679 54.705,77.548 54.740,77.708 54.782 M72.167 55.833 C 71.823 55.943,71.809 55.969,72.083 55.981 C 72.267 55.989,72.529 55.922,72.667 55.833 C 72.959 55.645,72.756 55.645,72.167 55.833 M92.326 56.875 C 92.735 57.310,93.091 57.667,93.118 57.667 C 93.243 57.667,93.111 57.517,92.375 56.826 L 91.583 56.083 92.326 56.875 M154.333 56.219 C 154.333 56.248,154.577 56.491,154.875 56.760 L 155.417 57.250 154.927 56.708 C 154.471 56.203,154.333 56.090,154.333 56.219 M71.872 59.333 C 71.872 59.654,71.906 59.785,71.948 59.625 C 71.990 59.465,71.990 59.202,71.948 59.042 C 71.906 58.881,71.872 59.012,71.872 59.333 M109.545 62.167 C 109.545 62.579,109.578 62.748,109.618 62.542 C 109.657 62.335,109.657 61.998,109.618 61.792 C 109.578 61.585,109.545 61.754,109.545 62.167 M72.081 81.333 C 72.081 91.829,72.101 96.123,72.125 90.875 C 72.149 85.627,72.149 77.040,72.125 71.792 C 72.101 66.544,72.081 70.837,72.081 81.333 M57.560 64.500 C 57.560 65.371,57.588 65.727,57.623 65.292 C 57.657 64.856,57.657 64.144,57.623 63.708 C 57.588 63.273,57.560 63.629,57.560 64.500 M109.747 82.167 C 109.747 92.204,109.767 96.310,109.792 91.292 C 109.816 86.273,109.816 78.060,109.792 73.042 C 109.767 68.023,109.747 72.129,109.747 82.167 M130.353 64.292 L 130.333 64.667 144.667 64.667 L 159.000 64.667 158.981 64.292 C 158.966 64.009,158.942 63.989,158.885 64.208 C 158.767 64.661,130.567 64.661,130.448 64.208 C 130.391 63.989,130.367 64.009,130.353 64.292 M95.052 65.417 C 95.053 65.967,95.084 66.172,95.121 65.872 C 95.158 65.572,95.157 65.122,95.119 64.872 C 95.081 64.622,95.051 64.867,95.052 65.417 M115.205 65.833 C 115.205 66.154,115.240 66.285,115.282 66.125 C 115.323 65.965,115.323 65.702,115.282 65.542 C 115.240 65.381,115.205 65.512,115.205 65.833 M173.052 66.583 C 173.053 67.133,173.084 67.338,173.121 67.039 C 173.158 66.739,173.157 66.289,173.119 66.039 C 173.081 65.788,173.051 66.033,173.052 66.583 M212.731 67.617 C 212.378 68.048,212.176 68.347,212.282 68.282 C 212.509 68.141,213.564 66.833,213.451 66.833 C 213.408 66.833,213.084 67.186,212.731 67.617 M173.055 70.917 C 173.055 71.558,173.086 71.800,173.122 71.455 C 173.158 71.109,173.157 70.584,173.120 70.288 C 173.083 69.992,173.054 70.275,173.055 70.917 M114.883 71.000 C 114.883 71.504,114.915 71.710,114.953 71.458 C 114.991 71.206,114.991 70.794,114.953 70.542 C 114.915 70.290,114.883 70.496,114.883 71.000 M172.875 73.083 C 172.877 73.450,172.911 73.580,172.951 73.373 C 172.991 73.166,172.990 72.866,172.948 72.706 C 172.906 72.547,172.874 72.717,172.875 73.083 M115.205 76.333 C 115.205 76.654,115.240 76.785,115.282 76.625 C 115.323 76.465,115.323 76.202,115.282 76.042 C 115.240 75.881,115.205 76.012,115.205 76.333 M130.634 77.708 C 130.717 78.012,130.748 78.028,130.797 77.792 C 130.854 77.518,132.019 77.499,151.637 77.458 L 172.417 77.415 151.474 77.374 L 130.531 77.333 130.634 77.708 M185.566 79.542 C 184.836 80.384,184.619 80.667,184.704 80.667 C 184.753 80.667,185.070 80.329,185.408 79.917 C 186.034 79.153,186.158 78.859,185.566 79.542 M317.379 81.333 C 317.379 81.746,317.411 81.915,317.451 81.708 C 317.491 81.502,317.491 81.165,317.451 80.958 C 317.411 80.752,317.379 80.921,317.379 81.333 M116.258 81.375 C 116.320 81.581,116.439 81.823,116.523 81.913 C 116.607 82.002,116.591 81.834,116.488 81.538 C 116.277 80.932,116.082 80.795,116.258 81.375 M182.896 82.875 C 182.404 83.437,182.117 83.833,182.202 83.833 C 182.243 83.833,182.519 83.533,182.813 83.167 C 183.385 82.455,183.443 82.251,182.896 82.875 M199.400 84.375 C 198.670 85.217,198.453 85.500,198.537 85.500 C 198.586 85.500,198.903 85.162,199.241 84.750 C 199.867 83.986,199.991 83.693,199.400 84.375 M303.003 84.681 C 303.004 84.994,303.074 85.359,303.158 85.491 C 303.257 85.647,303.277 85.471,303.216 84.991 C 303.098 84.071,302.999 83.927,303.003 84.681 M168.435 87.250 C 168.572 87.863,168.668 87.996,168.664 87.569 C 168.663 87.394,168.585 87.138,168.492 87.000 C 168.369 86.817,168.353 86.885,168.435 87.250 M152.377 87.786 C 152.631 87.825,153.006 87.824,153.211 87.784 C 153.416 87.744,153.208 87.713,152.750 87.714 C 152.292 87.716,152.124 87.748,152.377 87.786 M329.458 87.784 C 329.665 87.824,330.002 87.824,330.208 87.784 C 330.415 87.745,330.246 87.712,329.833 87.712 C 329.421 87.712,329.252 87.745,329.458 87.784 M146.625 88.123 C 147.106 88.157,147.894 88.157,148.375 88.123 C 148.856 88.089,148.462 88.062,147.500 88.062 C 146.537 88.062,146.144 88.089,146.625 88.123 M337.372 89.333 C 337.372 89.654,337.406 89.785,337.448 89.625 C 337.490 89.465,337.490 89.202,337.448 89.042 C 337.406 88.881,337.372 89.013,337.372 89.333 M120.330 89.828 C 120.524 90.101,120.767 90.376,120.871 90.440 C 120.975 90.504,120.850 90.282,120.594 89.945 C 120.037 89.215,119.827 89.122,120.330 89.828 M175.912 96.000 L 175.917 100.417 201.403 100.417 C 221.925 100.417,226.897 100.375,226.932 100.204 C 226.956 100.087,226.937 100.069,226.890 100.162 C 226.833 100.278,218.586 100.333,201.406 100.333 L 176.006 100.333 175.957 95.958 L 175.908 91.583 175.912 96.000 M337.872 92.167 C 337.872 92.487,337.906 92.619,337.948 92.458 C 337.990 92.298,337.990 92.035,337.948 91.875 C 337.906 91.715,337.872 91.846,337.872 92.167 M123.160 93.208 C 123.850 93.944,124.000 94.077,124.000 93.951 C 124.000 93.925,123.644 93.568,123.208 93.160 L 122.417 92.417 123.160 93.208 M308.583 97.000 C 309.035 97.458,309.442 97.833,309.487 97.833 C 309.533 97.833,309.201 97.458,308.750 97.000 C 308.299 96.542,307.892 96.167,307.846 96.167 C 307.800 96.167,308.132 96.542,308.583 97.000 M339.045 99.167 C 339.045 99.579,339.078 99.748,339.118 99.542 C 339.157 99.335,339.157 98.998,339.118 98.792 C 339.078 98.585,339.045 98.754,339.045 99.167 M23.720 100.458 C 25.720 100.485,28.945 100.485,30.886 100.458 C 32.828 100.431,31.192 100.410,27.250 100.410 C 23.308 100.410,21.720 100.432,23.720 100.458 M61.220 100.458 C 63.220 100.485,66.445 100.485,68.386 100.458 C 70.328 100.431,68.692 100.410,64.750 100.410 C 60.808 100.410,59.220 100.432,61.220 100.458 M98.886 100.458 C 100.886 100.485,104.111 100.485,106.053 100.458 C 107.995 100.431,106.358 100.410,102.417 100.410 C 98.475 100.410,96.886 100.432,98.886 100.458 M335.500 100.508 C 335.317 100.631,335.385 100.647,335.750 100.565 C 336.363 100.428,336.496 100.332,336.069 100.336 C 335.894 100.337,335.637 100.415,335.500 100.508 M333.500 101.008 C 333.317 101.131,333.385 101.147,333.750 101.065 C 334.363 100.928,334.496 100.832,334.069 100.836 C 333.894 100.837,333.637 100.915,333.500 101.008 M140.542 101.615 C 140.702 101.657,140.965 101.657,141.125 101.615 C 141.285 101.573,141.154 101.539,140.833 101.539 C 140.512 101.539,140.381 101.573,140.542 101.615 M152.794 101.618 C 153.001 101.658,153.301 101.656,153.460 101.615 C 153.620 101.573,153.450 101.540,153.083 101.542 C 152.717 101.544,152.586 101.578,152.794 101.618 M144.958 101.951 C 145.165 101.991,145.502 101.991,145.708 101.951 C 145.915 101.911,145.746 101.879,145.333 101.879 C 144.921 101.879,144.752 101.911,144.958 101.951 M147.292 101.955 C 147.681 101.990,148.319 101.990,148.708 101.955 C 149.098 101.920,148.779 101.892,148.000 101.892 C 147.221 101.892,146.902 101.920,147.292 101.955 M325.542 101.948 C 325.702 101.990,325.965 101.990,326.125 101.948 C 326.285 101.906,326.154 101.872,325.833 101.872 C 325.512 101.872,325.381 101.906,325.542 101.948 M323.460 102.118 C 323.668 102.158,323.968 102.156,324.127 102.115 C 324.286 102.073,324.117 102.040,323.750 102.042 C 323.383 102.044,323.253 102.078,323.460 102.118 " stroke="none" fill="#8a8a8a" fill-rule="evenodd"></path><path id="path4" d="M144.464 40.290 C 144.948 40.324,145.698 40.323,146.131 40.289 C 146.563 40.255,146.167 40.227,145.250 40.228 C 144.333 40.228,143.980 40.256,144.464 40.290 M293.781 40.291 C 295.356 40.319,297.981 40.319,299.614 40.291 C 301.247 40.264,299.958 40.242,296.750 40.242 C 293.542 40.242,292.206 40.264,293.781 40.291 M321.708 40.292 C 324.252 40.317,328.415 40.317,330.958 40.292 C 333.502 40.266,331.421 40.245,326.333 40.245 C 321.246 40.245,319.165 40.266,321.708 40.292 M27.471 40.458 C 31.442 40.483,37.892 40.483,41.804 40.458 C 45.716 40.433,42.467 40.413,34.583 40.413 C 26.700 40.413,23.499 40.433,27.471 40.458 M85.708 40.453 C 85.960 40.491,86.373 40.491,86.625 40.453 C 86.877 40.415,86.671 40.383,86.167 40.383 C 85.662 40.383,85.456 40.415,85.708 40.453 M142.044 40.453 C 142.297 40.491,142.672 40.490,142.877 40.451 C 143.082 40.411,142.875 40.380,142.417 40.381 C 141.958 40.382,141.791 40.415,142.044 40.453 M147.794 40.451 C 148.001 40.491,148.301 40.490,148.460 40.448 C 148.620 40.406,148.450 40.374,148.083 40.375 C 147.717 40.377,147.586 40.411,147.794 40.451 M189.362 40.458 C 196.207 40.482,207.457 40.482,214.362 40.458 C 221.267 40.434,215.667 40.415,201.917 40.415 C 188.167 40.415,182.517 40.434,189.362 40.458 M20.082 70.417 C 20.082 86.917,20.101 93.691,20.125 85.472 C 20.149 77.252,20.149 63.752,20.125 55.472 C 20.101 47.191,20.082 53.917,20.082 70.417 M52.208 40.615 C 52.369 40.657,52.631 40.657,52.792 40.615 C 52.952 40.573,52.821 40.539,52.500 40.539 C 52.179 40.539,52.048 40.573,52.208 40.615 M81.375 40.615 C 81.535 40.657,81.798 40.657,81.958 40.615 C 82.119 40.573,81.987 40.539,81.667 40.539 C 81.346 40.539,81.215 40.573,81.375 40.615 M227.039 45.008 C 227.010 48.379,226.945 49.664,226.793 49.842 C 226.654 50.004,226.682 49.998,226.879 49.825 C 227.148 49.588,227.168 49.183,227.125 44.991 L 227.078 40.417 227.039 45.008 M77.625 40.951 C 77.831 40.991,78.169 40.991,78.375 40.951 C 78.581 40.911,78.412 40.879,78.000 40.879 C 77.587 40.879,77.419 40.911,77.625 40.951 M100.819 44.223 C 101.062 44.526,102.000 45.240,102.000 45.123 C 102.000 45.086,101.681 44.802,101.292 44.493 C 100.902 44.183,100.689 44.062,100.819 44.223 M103.000 46.083 C 103.311 46.404,103.603 46.667,103.649 46.667 C 103.695 46.667,103.478 46.404,103.167 46.083 C 102.856 45.762,102.564 45.500,102.518 45.500 C 102.472 45.500,102.689 45.762,103.000 46.083 M163.500 46.219 C 163.500 46.248,163.744 46.491,164.042 46.760 L 164.583 47.250 164.094 46.708 C 163.638 46.203,163.500 46.090,163.500 46.219 M123.500 48.583 C 123.095 48.996,122.801 49.333,122.847 49.333 C 122.893 49.333,123.262 48.996,123.667 48.583 C 124.072 48.171,124.365 47.833,124.319 47.833 C 124.274 47.833,123.905 48.171,123.500 48.583 M104.999 48.458 C 105.218 48.756,105.422 49.000,105.454 49.000 C 105.580 49.000,105.167 48.375,104.894 48.153 C 104.714 48.007,104.754 48.123,104.999 48.458 M166.000 48.750 C 166.311 49.071,166.603 49.333,166.649 49.333 C 166.695 49.333,166.478 49.071,166.167 48.750 C 165.856 48.429,165.564 48.167,165.518 48.167 C 165.472 48.167,165.689 48.429,166.000 48.750 M121.991 50.292 L 121.417 50.917 122.042 50.342 C 122.623 49.808,122.743 49.667,122.616 49.667 C 122.588 49.667,122.307 49.948,121.991 50.292 M106.667 51.064 C 106.667 51.243,107.163 52.167,107.259 52.167 C 107.304 52.167,107.218 51.923,107.066 51.625 C 106.757 51.017,106.667 50.890,106.667 51.064 M144.214 53.290 C 144.745 53.323,145.570 53.323,146.048 53.289 C 146.526 53.256,146.092 53.229,145.083 53.229 C 144.075 53.229,143.684 53.257,144.214 53.290 M169.583 53.833 C 169.726 54.108,169.879 54.333,169.925 54.333 C 169.971 54.333,169.892 54.108,169.750 53.833 C 169.608 53.558,169.454 53.333,169.408 53.333 C 169.362 53.333,169.441 53.558,169.583 53.833 M149.181 53.727 C 149.219 53.759,149.475 53.837,149.750 53.898 C 150.115 53.980,150.183 53.964,150.000 53.841 C 149.775 53.689,149.013 53.582,149.181 53.727 M184.125 53.792 C 188.181 53.816,194.819 53.816,198.875 53.792 C 202.931 53.767,199.612 53.746,191.500 53.746 C 183.387 53.746,180.069 53.767,184.125 53.792 M107.929 54.167 C 107.990 54.396,108.110 54.696,108.195 54.833 C 108.302 55.007,108.315 54.956,108.238 54.667 C 108.176 54.438,108.057 54.137,107.972 54.000 C 107.865 53.826,107.851 53.877,107.929 54.167 M34.410 54.375 C 34.367 54.490,34.351 64.896,34.374 77.500 L 34.418 100.417 34.459 77.377 L 34.500 54.337 41.542 54.292 L 48.583 54.246 41.536 54.206 C 36.023 54.175,34.472 54.212,34.410 54.375 M82.717 54.291 C 83.523 54.321,84.798 54.321,85.550 54.291 C 86.302 54.260,85.642 54.235,84.083 54.235 C 82.525 54.235,81.910 54.260,82.717 54.291 M76.500 54.833 C 76.170 54.939,76.153 54.967,76.417 54.967 C 76.600 54.967,76.938 54.907,77.167 54.833 C 77.497 54.728,77.514 54.700,77.250 54.700 C 77.067 54.700,76.729 54.760,76.500 54.833 M134.573 56.875 L 134.083 57.417 134.625 56.927 C 134.923 56.658,135.167 56.414,135.167 56.385 C 135.167 56.257,135.029 56.370,134.573 56.875 M71.898 61.917 C 71.898 63.108,71.925 63.574,71.957 62.951 C 71.989 62.329,71.989 61.354,71.957 60.785 C 71.924 60.216,71.898 60.725,71.898 61.917 M109.581 81.583 C 109.581 91.942,109.601 96.155,109.625 90.946 C 109.649 85.736,109.649 77.261,109.625 72.112 C 109.601 66.963,109.581 71.225,109.581 81.583 M302.741 69.250 C 302.742 72.367,302.764 73.618,302.791 72.031 C 302.819 70.444,302.819 67.894,302.791 66.364 C 302.764 64.835,302.741 66.133,302.741 69.250 M317.074 69.167 C 317.074 72.146,317.097 73.365,317.125 71.875 C 317.152 70.385,317.152 67.948,317.125 66.458 C 317.097 64.969,317.074 66.188,317.074 69.167 M95.247 82.583 C 95.247 92.392,95.267 96.380,95.292 91.446 C 95.316 86.511,95.316 78.486,95.292 73.612 C 95.267 68.738,95.247 72.775,95.247 82.583 M172.881 65.750 C 172.882 66.208,172.915 66.376,172.953 66.123 C 172.991 65.869,172.990 65.494,172.951 65.289 C 172.911 65.084,172.880 65.292,172.881 65.750 M115.048 68.083 C 115.049 68.542,115.081 68.709,115.120 68.456 C 115.158 68.203,115.157 67.828,115.117 67.623 C 115.078 67.418,115.046 67.625,115.048 68.083 M173.056 68.667 C 173.056 69.354,173.085 69.635,173.121 69.292 C 173.157 68.948,173.157 68.385,173.121 68.042 C 173.085 67.698,173.056 67.979,173.056 68.667 M172.872 72.000 C 172.872 72.321,172.906 72.452,172.948 72.292 C 172.990 72.131,172.990 71.869,172.948 71.708 C 172.906 71.548,172.872 71.679,172.872 72.000 M115.045 74.000 C 115.045 74.412,115.078 74.581,115.118 74.375 C 115.157 74.169,115.157 73.831,115.118 73.625 C 115.078 73.419,115.045 73.587,115.045 74.000 M189.400 74.875 C 188.670 75.717,188.453 76.000,188.537 76.000 C 188.586 76.000,188.903 75.662,189.241 75.250 C 189.867 74.486,189.991 74.193,189.400 74.875 M115.205 75.333 C 115.205 75.654,115.240 75.785,115.282 75.625 C 115.323 75.465,115.323 75.202,115.282 75.042 C 115.240 74.881,115.205 75.012,115.205 75.333 M302.712 79.500 C 302.712 79.912,302.745 80.081,302.784 79.875 C 302.824 79.669,302.824 79.331,302.784 79.125 C 302.745 78.919,302.712 79.087,302.712 79.500 M302.887 82.167 C 302.887 82.762,302.917 83.006,302.954 82.708 C 302.991 82.410,302.991 81.923,302.954 81.625 C 302.917 81.327,302.887 81.571,302.887 82.167 M317.357 82.167 C 317.357 82.304,317.421 82.567,317.500 82.750 C 317.590 82.960,317.643 82.991,317.643 82.833 C 317.643 82.696,317.579 82.433,317.500 82.250 C 317.410 82.040,317.357 82.009,317.357 82.167 M134.250 84.000 C 134.701 84.458,135.108 84.833,135.154 84.833 C 135.200 84.833,134.868 84.458,134.417 84.000 C 133.965 83.542,133.558 83.167,133.513 83.167 C 133.467 83.167,133.799 83.542,134.250 84.000 M135.486 85.061 C 135.708 85.334,136.333 85.747,136.333 85.621 C 136.333 85.589,136.090 85.384,135.792 85.166 C 135.456 84.921,135.340 84.881,135.486 85.061 M303.357 86.333 C 303.357 86.471,303.421 86.733,303.500 86.917 C 303.590 87.127,303.643 87.158,303.643 87.000 C 303.643 86.862,303.579 86.600,303.500 86.417 C 303.410 86.207,303.357 86.176,303.357 86.333 M197.502 86.581 C 197.153 87.001,197.267 87.004,212.333 86.959 L 226.917 86.915 212.188 86.874 C 199.118 86.838,197.483 86.805,197.667 86.583 C 197.781 86.446,197.837 86.333,197.791 86.333 C 197.745 86.333,197.615 86.445,197.502 86.581 M334.667 87.000 C 334.097 87.120,334.095 87.123,334.583 87.133 C 334.858 87.139,335.233 87.079,335.417 87.000 C 335.817 86.828,335.485 86.828,334.667 87.000 M226.909 93.583 C 226.909 97.158,226.931 98.597,226.958 96.781 C 226.985 94.964,226.985 92.039,226.958 90.281 C 226.931 88.522,226.909 90.008,226.909 93.583 M331.542 87.615 C 331.702 87.657,331.965 87.657,332.125 87.615 C 332.285 87.573,332.154 87.539,331.833 87.539 C 331.512 87.539,331.381 87.573,331.542 87.615 M144.792 88.118 C 144.998 88.157,145.335 88.157,145.542 88.118 C 145.748 88.078,145.579 88.045,145.167 88.045 C 144.754 88.045,144.585 88.078,144.792 88.118 M149.375 88.115 C 149.535 88.157,149.798 88.157,149.958 88.115 C 150.119 88.073,149.987 88.039,149.667 88.039 C 149.346 88.039,149.215 88.073,149.375 88.115 M324.049 88.124 C 324.764 88.155,325.889 88.155,326.549 88.124 C 327.210 88.092,326.625 88.066,325.250 88.067 C 323.875 88.067,323.335 88.093,324.049 88.124 M146.963 88.289 C 147.355 88.324,147.955 88.324,148.296 88.288 C 148.637 88.252,148.317 88.223,147.583 88.224 C 146.850 88.224,146.571 88.254,146.963 88.289 M304.528 90.509 C 304.625 90.788,304.736 90.986,304.774 90.948 C 304.856 90.866,304.542 90.000,304.429 90.000 C 304.386 90.000,304.430 90.229,304.528 90.509 M122.167 92.052 C 122.167 92.081,122.410 92.325,122.708 92.594 L 123.250 93.083 122.760 92.542 C 122.304 92.037,122.167 91.923,122.167 92.052 M169.669 93.514 C 169.671 93.735,169.746 94.029,169.836 94.167 C 169.951 94.343,169.968 94.244,169.892 93.833 C 169.761 93.115,169.666 92.979,169.669 93.514 M123.833 93.719 C 123.833 93.748,124.077 93.991,124.375 94.260 L 124.917 94.750 124.427 94.208 C 123.971 93.703,123.833 93.590,123.833 93.719 M308.667 96.917 C 309.165 97.421,309.609 97.833,309.655 97.833 C 309.701 97.833,309.331 97.421,308.833 96.917 C 308.335 96.412,307.891 96.000,307.845 96.000 C 307.799 96.000,308.169 96.412,308.667 96.917 M337.417 100.000 C 337.207 100.090,337.176 100.143,337.333 100.143 C 337.471 100.143,337.733 100.079,337.917 100.000 C 338.127 99.910,338.158 99.857,338.000 99.857 C 337.862 99.857,337.600 99.921,337.417 100.000 M158.250 100.500 C 158.040 100.590,158.009 100.643,158.167 100.643 C 158.304 100.643,158.567 100.579,158.750 100.500 C 158.960 100.410,158.991 100.357,158.833 100.357 C 158.696 100.357,158.433 100.421,158.250 100.500 M141.542 101.615 C 141.702 101.657,141.965 101.657,142.125 101.615 C 142.285 101.573,142.154 101.539,141.833 101.539 C 141.512 101.539,141.381 101.573,141.542 101.615 M151.627 101.618 C 151.834 101.658,152.134 101.656,152.294 101.615 C 152.453 101.573,152.283 101.540,151.917 101.542 C 151.550 101.544,151.420 101.578,151.627 101.618 M329.375 101.615 C 329.535 101.657,329.798 101.657,329.958 101.615 C 330.119 101.573,329.987 101.539,329.667 101.539 C 329.346 101.539,329.215 101.573,329.375 101.615 M142.708 101.782 C 142.869 101.823,143.131 101.823,143.292 101.782 C 143.452 101.740,143.321 101.705,143.000 101.705 C 142.679 101.705,142.548 101.740,142.708 101.782 M150.208 101.782 C 150.369 101.823,150.631 101.823,150.792 101.782 C 150.952 101.740,150.821 101.705,150.500 101.705 C 150.179 101.705,150.048 101.740,150.208 101.782 M328.042 101.782 C 328.202 101.823,328.465 101.823,328.625 101.782 C 328.785 101.740,328.654 101.705,328.333 101.705 C 328.012 101.705,327.881 101.740,328.042 101.782 M322.794 101.951 C 323.001 101.991,323.301 101.990,323.460 101.948 C 323.620 101.906,323.450 101.874,323.083 101.875 C 322.717 101.877,322.586 101.911,322.794 101.951 M324.211 101.953 C 324.464 101.991,324.839 101.990,325.044 101.951 C 325.249 101.911,325.042 101.880,324.583 101.881 C 324.125 101.882,323.957 101.915,324.211 101.953 " stroke="none" fill="#7c7c7c" fill-rule="evenodd"></path></g></svg>